<?xml version="1.0" encoding="utf-8"?>
<!-- Uploaded to: SVG Repo, www.svgrepo.com, Generator: SVG Repo Mixer Tools -->
<svg width="800px" height="800px" viewBox="0 0 1024 1024" class="icon"  version="1.1" xmlns="http://www.w3.org/2000/svg"><path d="M993.763 493.538v35c0 13.331-6.04 26.664-18.135 37.137-140.149 121.422-280.35 242.795-420.49 364.219-11.813 10.237-25.813 15.501-42.454 15.501v-35c16.644 0 30.641-5.264 42.454-15.501C695.28 773.47 835.474 652.092 975.628 530.677c12.095-10.475 18.135-23.803 18.135-37.139z" fill="#E9B647" /><path d="M30.239 528.367v-3.5-1.75-3.5-3.5-1.75-3.5-3.5-1.75-3.5-3.5-1.75-3.5c0 14.707 6.701 29.313 19.037 40.019 138.449 120.064 277.049 239.996 415.562 360.02 13.002 11.26 28.74 16.466 47.853 16.994v35c-19.108-0.528-34.851-5.734-47.853-16.994C326.325 808.382 187.725 688.45 49.276 568.386c-12.337-10.705-19.037-25.312-19.037-40.019z" fill="#E9B647" /><path d="M510.786 76.601c16.263 0 32.546 5.362 44.946 16.097 139.949 121.188 279.9 242.376 419.818 363.586 24.241 20.995 24.295 53.413 0.079 74.396C835.48 652.101 695.28 773.478 555.141 894.898c-11.814 10.238-25.813 15.502-42.451 15.502-19.109-0.528-34.853-5.734-47.854-16.994C326.324 773.382 187.724 653.45 49.275 533.386c-19.581-16.987-24.96-43.81-11.895-65.251 3.919-6.438 8.669-11.829 14.465-16.849C189.954 331.734 328.024 212.152 466.107 92.567c12.296-10.639 28.478-15.966 44.679-15.966z" fill="#F3D537" /><path d="M348.561 390.73v-0.438-0.464-0.482-0.49-0.49-0.481-0.463-0.438-1.526-1.617-1.678-1.708-1.708-1.678-1.614-1.524c1.799 0.03 3.659 0.418 6.432 1.708V392.435c-2.773-1.288-4.634-1.675-6.432-1.705z" fill="#D8923E" /><path d="M355.664 375.958v16.8c-3.277-1.61-5.324-2.032-7.336-2.032v-16.8c2.012 0.001 4.058 0.423 7.336 2.032" fill="#D8923E" /><path d="M688.374 385.18v16.8c0.011 3.749-2.324 6.708-5.694 9.312-18.486 14.29-36.934 28.641-55.379 42.965-18.347 14.246-36.671 28.495-55.804 43.36v-16.8c19.133-14.867 37.457-29.114 55.804-43.36 18.445-14.325 36.893-28.675 55.379-42.966 3.37-2.603 5.705-5.561 5.694-9.311z" fill="#D8923E" /><path d="M688.374 385.18v16.8c0 0.187-0.007 0.373-0.018 0.556v-16.8c0.014-0.182 0.018-0.368 0.018-0.556" fill="#D8923E" /><path d="M688.357 385.736v16.8c-0.131 2.185-1.069 4.096-2.537 5.829v-16.801c1.468-1.731 2.409-3.643 2.537-5.828M685.818 391.564v16.801c-0.877 1.032-1.943 2.003-3.14 2.927-18.486 14.29-36.934 28.641-55.379 42.965-18.347 14.246-36.671 28.495-55.804 43.36v-16.8c19.133-14.867 37.457-29.114 55.804-43.36 18.445-14.325 36.893-28.675 55.379-42.966 1.198-0.923 2.263-1.894 3.14-2.927" fill="#D8923E" /><path d="M453.52 481.341v16.8c-2.791-2.191-5.169-4.076-7.579-5.937-34.736-26.879-69.462-53.784-104.237-80.625-3.597-2.781-6.136-5.797-6.147-9.582v-16.799c0.012 3.785 2.55 6.8 6.147 9.58 34.775 26.843 69.501 53.749 104.237 80.626 2.41 1.861 4.788 3.746 7.579 5.937z" fill="#D8923E" /><path d="M453.52 481.341v16.8c-2.791-2.191-5.169-4.076-7.579-5.937-34.736-26.879-69.462-53.784-104.237-80.625-3.597-2.781-6.136-5.797-6.147-9.582v-16.799c0.012 3.785 2.55 6.8 6.147 9.58 34.775 26.843 69.501 53.749 104.237 80.626 2.41 1.861 4.788 3.746 7.579 5.937" fill="#D8923E" /><path d="M715.746 486.798v16.8c0 32.75-0.022 65.497-0.065 98.241-0.021 16.117-13.163 26.863-32.496 26.87-28.519 0.018-57.031 0.022-85.551 0.022-28.516 0-57.032-0.006-85.546-0.006-15.209 0-30.42-0.002-45.627-0.004a166860.635 166860.635 0 0 0-84.75 0c-13.571 0.007-27.146 0.017-40.721 0.03-13.053-0.136-22.801-4.194-28.592-13.521a31.506 31.506 0 0 1-0.82-1.405c-2.146-3.932-3.135-8.687-3.155-13.077-0.108-37.822-0.146-75.641-0.149-113.458v-20.628 3.828c0.004 37.816 0.043 75.635 0.149 113.458 0.021 4.391 1.009 9.146 3.155 13.077 0.265 0.479 0.537 0.949 0.82 1.404 5.789 9.327 15.539 13.389 28.592 13.521 13.574-0.018 27.15-0.024 40.721-0.03a125342.478 125342.478 0 0 1 84.75 0c15.208 0.001 30.418 0.004 45.627 0.004 28.514 0 57.03 0.004 85.546 0.004 28.52 0 57.032-0.004 85.551-0.021 19.333-0.008 32.476-10.756 32.496-26.871 0.044-32.742 0.065-65.49 0.065-98.238z" fill="#D8923E" /><path d="M715.746 486.798v16.8c0 32.75-0.022 65.497-0.065 98.241 0 0.585-0.019 1.163-0.053 1.733v-16.8c0.034-0.57 0.053-1.148 0.053-1.734 0.044-32.744 0.065-65.492 0.065-98.24" fill="#D8923E" /><path d="M715.628 586.772v16.8c-0.348 5.659-2.364 10.599-5.725 14.564v-16.8c3.361-3.966 5.377-8.903 5.725-14.564M709.903 601.338v16.8c-1.658 1.954-3.642 3.673-5.913 5.126v-16.8c2.274-1.453 4.256-3.171 5.913-5.126" fill="#D8923E" /><path d="M703.991 606.464v16.8a31.6 31.6 0 0 1-6.13 3.015v-16.802a31.481 31.481 0 0 0 6.13-3.013M697.861 609.479v16.8c-2.531 0.929-5.283 1.604-8.229 2.007v-16.8c2.945-0.403 5.698-1.08 8.229-2.007M689.632 611.484v16.8a48.52 48.52 0 0 1-6.446 0.425c-28.519 0.018-57.031 0.022-85.551 0.022-28.515 0-57.031-0.006-85.547-0.006-15.208 0-30.419-0.002-45.626-0.004a166860.635 166860.635 0 0 0-84.749 0c-13.572 0.007-27.148 0.017-40.722 0.03-13.052-0.136-22.8-4.194-28.593-13.521a32.495 32.495 0 0 1-0.819-1.405c-2.146-3.932-3.134-8.687-3.156-13.077-0.108-37.822-0.146-75.641-0.148-113.458v-20.628 3.828c0.003 37.816 0.042 75.635 0.148 113.458 0.022 4.391 1.009 9.146 3.156 13.077 0.265 0.479 0.537 0.949 0.819 1.404 5.793 9.327 15.541 13.389 28.593 13.521 13.573-0.018 27.15-0.024 40.722-0.03a125331.45 125331.45 0 0 1 84.749 0c15.208 0.001 30.418 0.004 45.626 0.004 28.515 0 57.032 0.004 85.547 0.004 28.52 0 57.032-0.004 85.551-0.021a47.537 47.537 0 0 0 6.446-0.423" fill="#D8923E" /><path d="M609.659 438.127c-32.336 25.132-64.672 50.263-97.331 75.659v-16.8c32.659-25.396 64.995-50.527 97.331-75.659 5.483-4.262 10.964-8.531 16.439-12.8v16.8c-5.475 4.269-10.954 8.538-16.439 12.8z" fill="#D8923E" /><path d="M667.266 376.687v16.8c-0.421 0.267-0.834 0.557-1.238 0.871-18.879 14.507-37.59 29.174-56.368 43.77-32.337 25.132-64.674 50.263-97.331 75.659v-16.8c32.657-25.396 64.994-50.527 97.331-75.659 18.778-14.596 37.487-29.264 56.368-43.77a16.52 16.52 0 0 1 1.238-0.871" fill="#D8923E" /><path d="M360.794 396.502c-1.673-1.299-3.306-2.644-5.131-3.743v-16.8c1.821 1.1 3.452 2.439 5.122 3.738V379.697c0.002 0.001 0.005 0.004 0.009 0.005 49.403 38.29 98.793 76.584 148.195 114.873 0.989 0.77 2.045 1.477 3.338 2.41v16.8c-1.292-0.936-2.349-1.642-3.338-2.411-49.402-38.288-98.791-76.582-148.195-114.872z" fill="#D8923E" /><path d="M512.328 496.985v16.8c-1.291-0.936-2.35-1.642-3.337-2.411-49.4-38.288-98.793-76.583-148.195-114.873-1.673-1.299-3.306-2.644-5.131-3.743v-16.8c1.825 1.1 3.458 2.445 5.131 3.744 49.403 38.29 98.794 76.584 148.195 114.873 0.988 0.769 2.047 1.476 3.337 2.41" fill="#D8923E" /><path d="M502.941 519.546v16.8c-10.754-8.278-20.319-15.691-30.227-23.362v-16.801c9.908 7.671 19.474 15.084 30.227 23.363z" fill="#D8923E" /><path d="M502.941 519.546v16.8c-10.754-8.278-20.319-15.691-30.227-23.362v-16.801c9.908 7.671 19.474 15.084 30.227 23.363" fill="#D8923E" /><path d="M512.58 522.968v16.801c-3.571-0.077-6.511-1.223-9.639-3.421v-16.8c3.128 2.198 6.068 3.343 9.639 3.42z" fill="#D8923E" /><path d="M512.58 522.968v16.801c-3.571-0.077-6.511-1.223-9.639-3.421v-16.8c3.128 2.198 6.068 3.343 9.639 3.42" fill="#D8923E" /><path d="M552.818 495.396v16.801c-10.141 7.856-20.118 15.635-30.147 23.353-3.549 2.733-6.828 4.135-10.091 4.222V522.97c3.263-0.086 6.542-1.486 10.091-4.221 10.029-7.72 20.008-15.496 30.147-23.353z" fill="#D8923E" /><path d="M552.818 495.396v16.801c-10.141 7.856-20.118 15.635-30.147 23.353a28.537 28.537 0 0 1-2.085 1.47v-16.8c0.688-0.438 1.38-0.927 2.085-1.47 10.029-7.721 20.008-15.497 30.147-23.354" fill="#D8923E" /><path d="M520.586 520.218v16.8c-1.279 0.818-2.529 1.453-3.763 1.907v-16.8c1.234-0.454 2.484-1.089 3.763-1.907M516.823 522.125v16.8c-0.975 0.356-1.939 0.604-2.896 0.732v-16.8a13.78 13.78 0 0 0 2.896-0.732M513.927 522.858v16.801c-0.45 0.06-0.897 0.097-1.347 0.108v-16.801c0.448-0.01 0.897-0.047 1.347-0.108" fill="#D8923E" /><path d="M449.741 500.944a209163.185 209163.185 0 0 0-106.606 86.446v-1.965-2.081-2.16-2.196-2.196-2.159-2.078-1.961c35.525-28.825 71.061-57.642 106.606-86.446 1.079-0.874 2.248-1.668 3.778-2.804v16.8c-1.53 1.132-2.699 1.927-3.778 2.8z" fill="#D8923E" /><path d="M453.52 481.341v16.8c-1.53 1.136-2.701 1.93-3.778 2.804a219652.947 219652.947 0 0 0-106.929 86.71c-1.312 1.057-2.643 2.13-3.739 3.334a12.19 12.19 0 0 0-0.306 0.345v-16.8c0.1-0.115 0.201-0.229 0.306-0.345 1.098-1.203 2.429-2.277 3.739-3.336 35.633-28.91 71.274-57.814 106.929-86.709 1.078-0.872 2.247-1.668 3.778-2.803" fill="#D8923E" /><path d="M575.933 500.541c-1.291-1.056-2.843-1.876-4.436-2.923v-16.8c1.593 1.049 3.145 1.867 4.436 2.923 35.22 28.912 70.42 57.851 105.608 86.8 1.401 1.149 2.864 2.295 4.082 3.587 1.986 2.105 2.956 4.64 2.939 7.149v16.8c0.018-2.51-0.953-5.045-2.939-7.148-1.218-1.292-2.681-2.437-4.082-3.588-35.187-28.947-70.39-57.887-105.608-86.8z" fill="#D8923E" /><path d="M688.563 581.277v16.8c0.018-2.51-0.953-5.045-2.939-7.148-1.22-1.292-2.682-2.437-4.083-3.588a127376.88 127376.88 0 0 0-105.608-86.8c-1.29-1.056-2.842-1.876-4.435-2.923v-16.8c1.593 1.049 3.145 1.867 4.435 2.923 35.22 28.912 70.42 57.851 105.608 86.8 1.401 1.149 2.863 2.295 4.083 3.587 1.985 2.105 2.955 4.64 2.939 7.149" fill="#D8923E" /><path d="M668.48 590.164v16.8c-2.16-1.396-3.754-2.775-5.377-4.112-35.51-29.209-71.021-58.427-106.534-87.645-1.188-0.969-2.398-1.921-3.751-3.014v-16.801c1.353 1.093 2.563 2.046 3.751 3.014 35.513 29.216 71.022 58.435 106.534 87.645 1.626 1.338 3.217 2.716 5.377 4.113z" fill="#D8923E" /><path d="M668.48 590.164v16.8c-2.16-1.396-3.754-2.775-5.377-4.112-35.51-29.209-71.021-58.427-106.534-87.645-1.188-0.969-2.398-1.921-3.751-3.014v-16.801c1.353 1.093 2.563 2.046 3.751 3.014 35.513 29.216 71.022 58.435 106.534 87.645 1.626 1.338 3.217 2.716 5.377 4.113" fill="#D8923E" /><path d="M472.712 496.182v16.801c-1.793 1.422-3.548 2.774-5.262 4.163-35.875 29.07-71.709 58.163-107.695 87.138-2.379 1.921-5.625 3.432-8.769 4.139v-16.801c3.145-0.706 6.389-2.217 8.769-4.138 35.986-28.975 71.82-58.067 107.695-87.139 1.716-1.387 3.47-2.741 5.262-4.163z" fill="#D8923E" /><path d="M472.712 496.182v16.801c-1.793 1.422-3.548 2.774-5.262 4.163-35.875 29.07-71.709 58.163-107.695 87.138a17.79 17.79 0 0 1-1.631 1.169v-16.8a17.928 17.928 0 0 0 1.631-1.169c35.986-28.975 71.82-58.067 107.695-87.139 1.716-1.387 3.47-2.741 5.262-4.163" fill="#D8923E" /><path d="M358.126 588.652v16.8a22.83 22.83 0 0 1-4.354 2.145v-16.8a22.83 22.83 0 0 0 4.354-2.145M353.771 590.797v16.8c-0.92 0.338-1.857 0.614-2.784 0.825v-16.801a21.85 21.85 0 0 0 2.784-0.824" fill="#D8923E" /><path d="M347.838 373.936c2.502-0.009 4.55 0.413 6.467 1.299 3.185 1.823 4.816 3.168 6.49 4.467 49.403 38.29 98.793 76.584 148.195 114.871 0.988 0.771 2.045 1.478 3.338 2.412 32.657-25.396 64.994-50.527 97.331-75.659 18.778-14.598 37.487-29.262 56.368-43.77 3.005-2.31 6.412-3.42 9.646-3.488 6.285 0.103 11.332 3.467 12.498 9.207 0.134 0.657 0.198 1.292 0.201 1.906 0.012 3.75-2.323 6.709-5.693 9.312-18.486 14.291-36.934 28.642-55.379 42.966-18.347 14.248-36.671 28.495-55.804 43.36 1.593 1.048 3.145 1.868 4.436 2.923 35.22 28.912 70.42 57.85 105.608 86.799 1.4 1.151 2.862 2.297 4.084 3.587 1.984 2.105 2.955 4.64 2.938 7.149-0.019 2.673-1.155 5.317-3.381 7.394-2.442 2.272-5.784 3.472-9.177 3.51-2.888-0.044-5.363-0.704-7.524-2.017-2.159-1.397-3.753-2.775-5.376-4.112-35.51-29.209-71.021-58.427-106.534-87.645-1.188-0.969-2.398-1.921-3.751-3.014-10.141 7.858-20.118 15.637-30.147 23.354-3.549 2.731-6.828 4.134-10.091 4.22-3.571-0.077-6.511-1.222-9.639-3.42-10.753-8.28-20.319-15.691-30.227-23.364-1.795 1.422-3.549 2.775-5.264 4.163-35.875 29.072-71.709 58.166-107.695 87.139-2.379 1.921-5.625 3.432-8.769 4.139-1.073 0.22-1.881 0.302-2.674 0.308-0.409 0.001-0.733-0.011-1.054-0.036-3.778-0.302-7.112-2.349-9.146-5.359-1.21-1.795-1.81-3.756-1.792-5.698 0.021-2.347 0.935-4.668 2.751-6.646 1.098-1.202 2.428-2.277 3.738-3.335 35.634-28.909 71.275-57.814 106.929-86.711 1.079-0.874 2.248-1.667 3.78-2.801-2.793-2.19-5.172-4.077-7.584-5.937-34.734-26.879-69.459-53.784-104.235-80.625-3.597-2.781-6.134-5.796-6.147-9.581-0.002-1.158 0.231-2.389 0.744-3.706 1.805-4.62 6.52-7.392 11.541-7.561z" fill="#F4C45B" /><path d="M715.681 382.173a77939.459 77939.459 0 0 1 0 202.865c-0.021 16.116-13.163 26.864-32.495 26.871-28.52 0.018-57.032 0.021-85.552 0.021-28.516 0-57.032-0.004-85.546-0.004-15.209 0-30.42-0.003-45.627-0.004a133488.658 133488.658 0 0 0-84.75 0c-13.571 0.007-27.146 0.015-40.721 0.029-13.053-0.136-22.8-4.194-28.592-13.521a30.411 30.411 0 0 1-0.82-1.405c-2.146-3.931-3.135-8.686-3.155-13.077-0.107-37.82-0.146-75.639-0.148-113.458-0.003-29.414 0.02-58.828 0.049-88.238 0.021-17.188 12.761-28.109 32.549-28.116a637051.994 637051.994 0 0 1 153.707-0.018c32.354 0 63.018 0.001 93.678 0.005 31.602 0.001 63.201 0.007 94.801 0.013 19.811 0.007 32.593 10.885 32.622 28.037z m-30.5 206.498c2.224-2.074 3.36-4.721 3.382-7.394 0.018-2.511-0.953-5.045-2.939-7.149-1.22-1.292-2.682-2.436-4.083-3.587a125395.934 125395.934 0 0 0-105.608-86.8c-1.29-1.055-2.842-1.875-4.435-2.923 19.131-14.867 37.457-29.114 55.802-43.36 18.447-14.324 36.895-28.675 55.381-42.966 3.37-2.603 5.705-5.562 5.691-9.312a9.759 9.759 0 0 0-0.2-1.906c-1.167-5.739-6.212-9.103-11.913-9.208-3.821 0.069-7.226 1.179-10.232 3.49-18.879 14.507-37.589 29.172-56.368 43.77a460778.117 460778.117 0 0 0-97.333 75.659c-1.29-0.935-2.348-1.642-3.335-2.41-49.402-38.288-98.793-76.583-148.195-114.873-1.674-1.299-3.306-2.644-5.131-3.744-3.277-1.61-5.325-2.031-7.336-2.031-5.511 0.176-10.226 2.95-12.025 7.566-0.513 1.317-0.747 2.548-0.744 3.706 0.012 3.784 2.551 6.8 6.146 9.58 34.776 26.844 69.502 53.748 104.237 80.626 2.411 1.858 4.791 3.743 7.58 5.936-1.53 1.135-2.701 1.93-3.778 2.803a233452.463 233452.463 0 0 0-106.929 86.709c-1.312 1.059-2.643 2.132-3.741 3.336-1.813 1.977-2.729 4.299-2.748 6.645-0.017 1.942 0.583 3.903 1.791 5.698 2.035 3.011 5.368 5.058 9.146 5.36a12.592 12.592 0 0 0 3.469-0.218c3.402-0.762 6.646-2.271 9.025-4.192 35.986-28.975 71.82-58.067 107.693-87.138 1.713-1.388 3.469-2.74 5.263-4.163 9.909 7.672 19.474 15.083 29.05 22.494 4.308 3.068 7.245 4.214 10.18 4.291 3.899-0.087 7.178-1.488 10.726-4.221 10.031-7.719 20.008-15.495 30.149-23.354 1.351 1.092 2.56 2.044 3.75 3.013 35.512 29.217 71.022 58.435 106.535 87.645 1.622 1.334 3.216 2.716 4.999 3.876 2.536 1.548 5.014 2.209 7.48 2.252 3.813-0.031 7.154-1.231 9.598-3.506" fill="#F9E7B3" /><path d="M736.485 360.813c2.29 4.251 3.308 9.018 4.908 13.54V591.64c-1.006 3.211-1.802 6.477-3.063 9.611-8.188 20.472-29.181 32.971-55.451 32.98-48.142 0.008-96.297 0.011-144.442 0.011-65.774 0-131.541-0.006-197.317-0.011-2.082 0-3.505-0.008-4.93-0.104-22.632-1.563-39.021-11.14-48.655-28.938-2.298-4.251-3.317-9.018-4.93-13.55V374.352c1.009-3.204 1.816-6.468 3.065-9.601 8.196-20.481 29.181-32.972 55.45-32.98 48.147-0.008 96.31-0.012 144.458-0.012 65.782 0 131.55 0.006 197.334 0.012 2.207 0 3.797 0.005 5.361 0.122 22.428 1.685 38.689 11.243 48.212 28.92zM715.681 585.04c0.044-33.808 0.067-67.623 0.065-101.433-0.001-33.812-0.025-67.624-0.065-101.433-0.029-17.153-12.811-28.03-32.631-28.038-31.591-0.006-63.203-0.008-94.799-0.013a940069.67 940069.67 0 0 0-169.399-0.002c-25.992 0.003-51.992 0.008-77.986 0.015-19.788 0.008-32.528 10.928-32.55 28.116-0.029 29.411-0.053 58.824-0.049 88.239 0 37.817 0.042 75.635 0.149 113.458 0.021 4.392 1.008 9.146 3.156 13.077 0.264 0.48 0.539 0.95 0.82 1.404 5.789 9.327 15.54 13.389 27.895 13.52 14.271-0.014 27.848-0.022 41.419-0.027a170242.511 170242.511 0 0 1 84.751-0.001c15.209 0.001 30.419 0.004 45.626 0.004 28.517 0 57.033 0.004 85.549 0.004 28.518 0 57.032-0.004 85.549-0.021 19.337-0.008 32.481-10.756 32.5-26.869" fill="#EBBB53" /><path d="M741.395 591.64v16.801c-1.006 3.211-1.802 6.477-3.063 9.61-8.188 20.473-29.181 32.972-55.451 32.98-48.142 0.008-96.297 0.011-144.441 0.011-65.775 0-131.541-0.005-197.318-0.011-2.082 0-3.505-0.007-4.93-0.104-22.631-1.563-39.021-11.141-48.655-28.938-2.298-4.251-3.317-9.018-4.93-13.55v-16.8c1.613 4.53 2.632 9.298 4.93 13.55 9.636 17.799 26.026 27.375 48.655 28.938 1.425 0.098 2.848 0.104 4.93 0.104 65.777 0.006 131.542 0.012 197.318 0.012 48.146 0 96.301-0.003 144.441-0.012 26.271-0.01 47.268-12.509 55.451-32.979 1.26-3.137 2.057-6.401 3.063-9.612z" fill="#D8923E" /><path d="M741.395 591.64v16.801c-1.006 3.211-1.802 6.477-3.063 9.61a48.187 48.187 0 0 1-7.976 13.27v-16.8a48.207 48.207 0 0 0 7.976-13.27c1.26-3.136 2.057-6.4 3.063-9.611M730.356 614.518v16.801c-3.251 3.838-7.106 7.184-11.469 9.972V624.49c4.363-2.789 8.218-6.132 11.469-9.972M718.887 624.49v16.8c-3.453 2.205-7.22 4.064-11.259 5.55v-16.801c4.039-1.483 7.807-3.343 11.259-5.549" fill="#D8923E" /><path d="M707.628 630.039v16.801c-4.437 1.629-9.195 2.806-14.216 3.488v-16.8c5.021-0.683 9.779-1.859 14.216-3.489M693.412 633.528v16.8c-3.397 0.463-6.915 0.7-10.531 0.703-48.142 0.007-96.297 0.01-144.441 0.01-65.775 0-131.541-0.006-197.318-0.01-2.082 0-3.505-0.008-4.93-0.105-22.632-1.563-39.021-11.14-48.655-28.938-2.298-4.25-3.317-9.018-4.929-13.549v-16.801c1.612 4.531 2.63 9.299 4.929 13.549 9.636 17.801 26.026 27.378 48.655 28.939 1.425 0.097 2.848 0.105 4.93 0.105 65.777 0.004 131.542 0.01 197.318 0.01 48.146 0 96.301-0.003 144.441-0.01a78.156 78.156 0 0 0 10.531-0.703" fill="#D8923E" /></svg>